<svg width="1440" height="1024" viewBox="0 0 1440 1024" fill="none" xmlns="http://www.w3.org/2000/svg">
<g clip-path="url(#clip0_210_1379)">
<rect y="841" width="183" height="183" fill="#020405"/>
<rect x="0.5" y="841.5" width="182" height="182" stroke="#2E2E2E" stroke-opacity="0.3"/>
<rect y="658" width="183" height="183" fill="#000D10"/>
<rect x="0.5" y="658.5" width="182" height="182" stroke="#2E2E2E" stroke-opacity="0.3"/>
<rect y="475" width="183" height="183" fill="#020405"/>
<rect x="0.5" y="475.5" width="182" height="182" stroke="#2E2E2E" stroke-opacity="0.3"/>
<rect y="292" width="183" height="183" fill="#020405"/>
<rect x="0.5" y="292.5" width="182" height="182" stroke="#2E2E2E" stroke-opacity="0.3"/>
<rect y="109" width="183" height="183" fill="#020405"/>
<rect x="0.5" y="109.5" width="182" height="182" stroke="#2E2E2E" stroke-opacity="0.3"/>
<rect y="-74" width="183" height="183" fill="#000B0E"/>
<rect x="0.5" y="-73.5" width="182" height="182" stroke="#2E2E2E" stroke-opacity="0.3"/>
<rect x="183" y="841" width="183" height="183" fill="#020405"/>
<rect x="183.5" y="841.5" width="182" height="182" stroke="#2E2E2E" stroke-opacity="0.3"/>
<rect x="183" y="658" width="183" height="183" fill="#020405"/>
<rect x="183.5" y="658.5" width="182" height="182" stroke="#2E2E2E" stroke-opacity="0.3"/>
<rect x="183" y="475" width="183" height="183" fill="#020405"/>
<rect x="183.5" y="475.5" width="182" height="182" stroke="#2E2E2E" stroke-opacity="0.3"/>
<rect x="183" y="292" width="183" height="183" fill="#020405"/>
<rect x="183.5" y="292.5" width="182" height="182" stroke="#2E2E2E" stroke-opacity="0.3"/>
<rect x="183" y="109" width="183" height="183" fill="#020405"/>
<rect x="183.5" y="109.5" width="182" height="182" stroke="#2E2E2E" stroke-opacity="0.3"/>
<rect x="183" y="-74" width="183" height="183" fill="#020405"/>
<rect x="183.5" y="-73.5" width="182" height="182" stroke="#2E2E2E" stroke-opacity="0.3"/>
<rect x="366" y="841" width="183" height="183" fill="#020405"/>
<rect x="366.5" y="841.5" width="182" height="182" stroke="#2E2E2E" stroke-opacity="0.3"/>
<rect x="366" y="658" width="183" height="183" fill="#020405"/>
<rect x="366.5" y="658.5" width="182" height="182" stroke="#2E2E2E" stroke-opacity="0.3"/>
<rect width="183" height="183" transform="translate(366 475)" fill="#000D10"/>
<rect x="366" y="475" width="183" height="183" fill="#000D10"/>
<rect x="366.5" y="475.5" width="182" height="182" stroke="#2E2E2E" stroke-opacity="0.3"/>
<rect x="366" y="292" width="183" height="183" fill="#020405"/>
<rect x="366.5" y="292.5" width="182" height="182" stroke="#2E2E2E" stroke-opacity="0.3"/>
<rect x="366" y="109" width="183" height="183" fill="#020405"/>
<rect x="366.5" y="109.5" width="182" height="182" stroke="#2E2E2E" stroke-opacity="0.3"/>
<rect x="366" y="-74" width="183" height="183" fill="#020405"/>
<rect x="366.5" y="-73.5" width="182" height="182" stroke="#2E2E2E" stroke-opacity="0.3"/>
<rect x="549" y="841" width="183" height="183" fill="#020405"/>
<rect x="549.5" y="841.5" width="182" height="182" stroke="#2E2E2E" stroke-opacity="0.3"/>
<rect x="549" y="658" width="183" height="183" fill="#020405"/>
<rect x="549.5" y="658.5" width="182" height="182" stroke="#2E2E2E" stroke-opacity="0.3"/>
<rect x="549" y="475" width="183" height="183" fill="#020405"/>
<rect x="549.5" y="475.5" width="182" height="182" stroke="#2E2E2E" stroke-opacity="0.3"/>
<rect x="549" y="292" width="183" height="183" fill="#020405"/>
<rect x="549.5" y="292.5" width="182" height="182" stroke="#2E2E2E" stroke-opacity="0.3"/>
<rect x="549" y="109" width="183" height="183" fill="#020405"/>
<rect x="549.5" y="109.5" width="182" height="182" stroke="#2E2E2E" stroke-opacity="0.3"/>
<rect x="549" y="-74" width="183" height="183" fill="#020405"/>
<rect x="549.5" y="-73.5" width="182" height="182" stroke="#2E2E2E" stroke-opacity="0.3"/>
<rect x="732" y="841" width="183" height="183" fill="#020405"/>
<rect x="732.5" y="841.5" width="182" height="182" stroke="#2E2E2E" stroke-opacity="0.3"/>
<rect x="732" y="658" width="183" height="183" fill="#020405"/>
<rect x="732.5" y="658.5" width="182" height="182" stroke="#2E2E2E" stroke-opacity="0.3"/>
<rect x="732" y="475" width="183" height="183" fill="#020405"/>
<rect x="732.5" y="475.5" width="182" height="182" stroke="#2E2E2E" stroke-opacity="0.3"/>
<rect x="732" y="292" width="183" height="183" fill="#020405"/>
<rect x="732.5" y="292.5" width="182" height="182" stroke="#2E2E2E" stroke-opacity="0.3"/>
<rect x="732" y="109" width="183" height="183" fill="#001A1F"/>
<rect x="732.5" y="109.5" width="182" height="182" stroke="#2E2E2E" stroke-opacity="0.3"/>
<rect x="732" y="-74" width="183" height="183" fill="#020405"/>
<rect x="732.5" y="-73.5" width="182" height="182" stroke="#2E2E2E" stroke-opacity="0.3"/>
<rect x="915" y="841" width="183" height="183" fill="#020405"/>
<rect x="915.5" y="841.5" width="182" height="182" stroke="#2E2E2E" stroke-opacity="0.3"/>
<rect x="915" y="658" width="183" height="183" fill="#000D10"/>
<rect x="915.5" y="658.5" width="182" height="182" stroke="#2E2E2E" stroke-opacity="0.3"/>
<rect x="915" y="475" width="183" height="183" fill="#020405"/>
<rect x="915.5" y="475.5" width="182" height="182" stroke="#2E2E2E" stroke-opacity="0.3"/>
<rect x="915" y="292" width="183" height="183" fill="#020405"/>
<rect x="915.5" y="292.5" width="182" height="182" stroke="#2E2E2E" stroke-opacity="0.3"/>
<rect x="915" y="109" width="183" height="183" fill="#020405"/>
<rect x="915.5" y="109.5" width="182" height="182" stroke="#2E2E2E" stroke-opacity="0.3"/>
<rect x="915" y="-74" width="183" height="183" fill="#020405"/>
<rect x="915.5" y="-73.5" width="182" height="182" stroke="#2E2E2E" stroke-opacity="0.3"/>
<rect x="1098" y="841" width="183" height="183" fill="#020405"/>
<rect x="1098.5" y="841.5" width="182" height="182" stroke="#2E2E2E" stroke-opacity="0.3"/>
<rect x="1098" y="658" width="183" height="183" fill="#020405"/>
<rect x="1098.5" y="658.5" width="182" height="182" stroke="#2E2E2E" stroke-opacity="0.3"/>
<rect x="1098" y="475" width="183" height="183" fill="#020405"/>
<rect x="1098.5" y="475.5" width="182" height="182" stroke="#2E2E2E" stroke-opacity="0.3"/>
<rect x="1098" y="292" width="183" height="183" fill="#00171D"/>
<rect x="1098.5" y="292.5" width="182" height="182" stroke="#2E2E2E" stroke-opacity="0.3"/>
<rect x="1098" y="109" width="183" height="183" fill="#020405"/>
<rect x="1098.5" y="109.5" width="182" height="182" stroke="#2E2E2E" stroke-opacity="0.3"/>
<rect x="1098" y="-74" width="183" height="183" fill="#020405"/>
<rect x="1098.5" y="-73.5" width="182" height="182" stroke="#2E2E2E" stroke-opacity="0.3"/>
<rect x="1281" y="841" width="183" height="183" fill="#000E10"/>
<rect x="1281.5" y="841.5" width="182" height="182" stroke="#2E2E2E" stroke-opacity="0.3"/>
<rect x="1281" y="658" width="183" height="183" fill="#020405"/>
<rect x="1281.5" y="658.5" width="182" height="182" stroke="#2E2E2E" stroke-opacity="0.3"/>
<rect x="1281" y="475" width="183" height="183" fill="#020405"/>
<rect x="1281.5" y="475.5" width="182" height="182" stroke="#2E2E2E" stroke-opacity="0.3"/>
<rect x="1281" y="292" width="183" height="183" fill="#020405"/>
<rect x="1281.5" y="292.5" width="182" height="182" stroke="#2E2E2E" stroke-opacity="0.3"/>
<rect x="1281" y="109" width="183" height="183" fill="#020405"/>
<rect x="1281.5" y="109.5" width="182" height="182" stroke="#2E2E2E" stroke-opacity="0.3"/>
<rect x="1281" y="-74" width="183" height="183" fill="#020405"/>
<rect x="1281.5" y="-73.5" width="182" height="182" stroke="#2E2E2E" stroke-opacity="0.3"/>
</g>
<ellipse cx="-74.5" cy="758" rx="690.5" ry="423" fill="url(#paint0_radial_210_1379)"/>
<ellipse cx="57.5" cy="52" rx="690.5" ry="423" fill="url(#paint1_radial_210_1379)"/>
<ellipse cx="1239.5" cy="898" rx="690.5" ry="423" fill="url(#paint2_radial_210_1379)"/>
<ellipse cx="964.5" cy="532" rx="690.5" ry="423" fill="url(#paint3_radial_210_1379)"/>
<defs>
<radialGradient id="paint0_radial_210_1379" cx="0" cy="0" r="1" gradientUnits="userSpaceOnUse" gradientTransform="translate(-74.5 758) rotate(51.1764) scale(1969.67 2425.8)">
<stop stop-color="#112C2C"/>
<stop offset="0.203125" stop-color="#020405" stop-opacity="0"/>
</radialGradient>
<radialGradient id="paint1_radial_210_1379" cx="0" cy="0" r="1" gradientUnits="userSpaceOnUse" gradientTransform="translate(57.5 52) rotate(51.1764) scale(1969.67 2425.8)">
<stop stop-color="#112C2C"/>
<stop offset="0.203125" stop-color="#020405" stop-opacity="0"/>
</radialGradient>
<radialGradient id="paint2_radial_210_1379" cx="0" cy="0" r="1" gradientUnits="userSpaceOnUse" gradientTransform="translate(1239.5 898) rotate(51.1764) scale(1969.67 2425.8)">
<stop stop-color="#112C2C"/>
<stop offset="0.203125" stop-color="#020405" stop-opacity="0"/>
</radialGradient>
<radialGradient id="paint3_radial_210_1379" cx="0" cy="0" r="1" gradientUnits="userSpaceOnUse" gradientTransform="translate(964.5 532) rotate(51.1764) scale(1969.67 2425.8)">
<stop stop-color="#112C2C"/>
<stop offset="0.177083" stop-color="#020405" stop-opacity="0"/>
</radialGradient>
<clipPath id="clip0_210_1379">
<rect width="1440" height="1024" fill="white"/>
</clipPath>
</defs>
</svg>
