<svg width="34" height="34" viewBox="0 0 34 34" fill="none" xmlns="http://www.w3.org/2000/svg">
<path d="M33.4688 25.4956H30.2812C29.9878 25.4956 29.75 25.6859 29.75 25.9206V27.1956C29.75 27.4303 29.9878 27.6206 30.2812 27.6206H33.4688C33.7622 27.6206 34 27.4303 34 27.1956V25.9206C34 25.6859 33.7622 25.4956 33.4688 25.4956Z" fill="#B3B3B3"/>
<path d="M33.4688 15.9331H30.2812C29.9878 15.9331 29.75 16.1234 29.75 16.3581V17.6331C29.75 17.8678 29.9878 18.0581 30.2812 18.0581H33.4688C33.7622 18.0581 34 17.8678 34 17.6331V16.3581C34 16.1234 33.7622 15.9331 33.4688 15.9331Z" fill="#B3B3B3"/>
<path d="M33.4688 11.1519H30.2812C29.9878 11.1519 29.75 11.3421 29.75 11.5769V12.8519C29.75 13.0866 29.9878 13.2769 30.2812 13.2769H33.4688C33.7622 13.2769 34 13.0866 34 12.8519V11.5769C34 11.3421 33.7622 11.1519 33.4688 11.1519Z" fill="#B3B3B3"/>
<path d="M33.4688 6.37061H30.2812C29.9878 6.37061 29.75 6.56088 29.75 6.79561V8.07061C29.75 8.30533 29.9878 8.49561 30.2812 8.49561H33.4688C33.7622 8.49561 34 8.30533 34 8.07061V6.79561C34 6.56088 33.7622 6.37061 33.4688 6.37061Z" fill="#B3B3B3"/>
<path d="M33.4688 20.7144H30.2812C29.9878 20.7144 29.75 20.9046 29.75 21.1394V22.4144C29.75 22.6491 29.9878 22.8394 30.2812 22.8394H33.4688C33.7622 22.8394 34 22.6491 34 22.4144V21.1394C34 20.9046 33.7622 20.7144 33.4688 20.7144Z" fill="#B3B3B3"/>
<path d="M8.50537 33.4685V30.281C8.50537 29.9876 8.31509 29.7498 8.08037 29.7498H6.80537C6.57065 29.7498 6.38037 29.9876 6.38037 30.281V33.4685C6.38037 33.7619 6.57065 33.9998 6.80537 33.9998H8.08037C8.31509 33.9998 8.50537 33.7619 8.50537 33.4685Z" fill="#B3B3B3"/>
<path d="M18.0679 33.4685V30.281C18.0679 29.9876 17.8776 29.7498 17.6429 29.7498H16.3679C16.1331 29.7498 15.9429 29.9876 15.9429 30.281V33.4685C15.9429 33.7619 16.1331 33.9998 16.3679 33.9998H17.6429C17.8776 33.9998 18.0679 33.7619 18.0679 33.4685Z" fill="#B3B3B3"/>
<path d="M22.8491 33.4685V30.281C22.8491 29.9876 22.6588 29.7498 22.4241 29.7498H21.1491C20.9144 29.7498 20.7241 29.9876 20.7241 30.281V33.4685C20.7241 33.7619 20.9144 33.9998 21.1491 33.9998H22.4241C22.6588 33.9998 22.8491 33.7619 22.8491 33.4685Z" fill="#B3B3B3"/>
<path d="M27.6304 33.4685V30.281C27.6304 29.9876 27.4401 29.7498 27.2054 29.7498H25.9304C25.6956 29.7498 25.5054 29.9876 25.5054 30.281V33.4685C25.5054 33.7619 25.6956 33.9998 25.9304 33.9998H27.2054C27.4401 33.9998 27.6304 33.7619 27.6304 33.4685Z" fill="#B3B3B3"/>
<path d="M13.2866 33.4685V30.281C13.2866 29.9876 13.0963 29.7498 12.8616 29.7498H11.5866C11.3519 29.7498 11.1616 29.9876 11.1616 30.281V33.4685C11.1616 33.7619 11.3519 33.9998 11.5866 33.9998H12.8616C13.0963 33.9998 13.2866 33.7619 13.2866 33.4685Z" fill="#B3B3B3"/>
<path d="M3.71875 25.4956H0.53125C0.237849 25.4956 0 25.6859 0 25.9206V27.1956C0 27.4303 0.237849 27.6206 0.53125 27.6206H3.71875C4.01215 27.6206 4.25 27.4303 4.25 27.1956V25.9206C4.25 25.6859 4.01215 25.4956 3.71875 25.4956Z" fill="#B3B3B3"/>
<path d="M3.71875 15.9331H0.53125C0.237849 15.9331 0 16.1234 0 16.3581V17.6331C0 17.8678 0.237849 18.0581 0.53125 18.0581H3.71875C4.01215 18.0581 4.25 17.8678 4.25 17.6331V16.3581C4.25 16.1234 4.01215 15.9331 3.71875 15.9331Z" fill="#B3B3B3"/>
<path d="M3.71875 11.1519H0.53125C0.237849 11.1519 0 11.3421 0 11.5769V12.8519C0 13.0866 0.237849 13.2769 0.53125 13.2769H3.71875C4.01215 13.2769 4.25 13.0866 4.25 12.8519V11.5769C4.25 11.3421 4.01215 11.1519 3.71875 11.1519Z" fill="#B3B3B3"/>
<path d="M3.71875 6.37061H0.53125C0.237849 6.37061 0 6.56088 0 6.79561V8.07061C0 8.30533 0.237849 8.49561 0.53125 8.49561H3.71875C4.01215 8.49561 4.25 8.30533 4.25 8.07061V6.79561C4.25 6.56088 4.01215 6.37061 3.71875 6.37061Z" fill="#B3B3B3"/>
<path d="M3.71875 20.7144H0.53125C0.237849 20.7144 0 20.9046 0 21.1394V22.4144C0 22.6491 0.237849 22.8394 0.53125 22.8394H3.71875C4.01215 22.8394 4.25 22.6491 4.25 22.4144V21.1394C4.25 20.9046 4.01215 20.7144 3.71875 20.7144Z" fill="#B3B3B3"/>
<path d="M8.50537 3.71875V0.53125C8.50537 0.237849 8.31509 0 8.08037 0H6.80537C6.57065 0 6.38037 0.237849 6.38037 0.53125V3.71875C6.38037 4.01215 6.57065 4.25 6.80537 4.25H8.08037C8.31509 4.25 8.50537 4.01215 8.50537 3.71875Z" fill="#B3B3B3"/>
<path d="M18.0679 3.71875V0.53125C18.0679 0.237849 17.8776 0 17.6429 0H16.3679C16.1331 0 15.9429 0.237849 15.9429 0.53125V3.71875C15.9429 4.01215 16.1331 4.25 16.3679 4.25H17.6429C17.8776 4.25 18.0679 4.01215 18.0679 3.71875Z" fill="#B3B3B3"/>
<path d="M22.8491 3.71875V0.53125C22.8491 0.237849 22.6588 0 22.4241 0H21.1491C20.9144 0 20.7241 0.237849 20.7241 0.53125V3.71875C20.7241 4.01215 20.9144 4.25 21.1491 4.25H22.4241C22.6588 4.25 22.8491 4.01215 22.8491 3.71875Z" fill="#B3B3B3"/>
<path d="M27.6304 3.71875V0.53125C27.6304 0.237849 27.4401 0 27.2054 0H25.9304C25.6956 0 25.5054 0.237849 25.5054 0.53125V3.71875C25.5054 4.01215 25.6956 4.25 25.9304 4.25H27.2054C27.4401 4.25 27.6304 4.01215 27.6304 3.71875Z" fill="#B3B3B3"/>
<path d="M13.2866 3.71875V0.53125C13.2866 0.237849 13.0963 0 12.8616 0H11.5866C11.3519 0 11.1616 0.237849 11.1616 0.53125V3.71875C11.1616 4.01215 11.3519 4.25 11.5866 4.25H12.8616C13.0963 4.25 13.2866 4.01215 13.2866 3.71875Z" fill="#B3B3B3"/>
<path d="M29.2719 3.50171H4.72812C4.17066 3.50171 3.71875 3.86324 3.71875 4.30921V29.4692C3.71875 29.9152 4.17066 30.2767 4.72812 30.2767H29.2719C29.8293 30.2767 30.2812 29.9152 30.2812 29.4692V4.30921C30.2812 3.86324 29.8293 3.50171 29.2719 3.50171Z" fill="#031012"/>
<path d="M22.6578 20.2043C21.5422 22.1805 19.4172 23.498 17 23.498C13.4141 23.498 10.4922 20.5868 10.4922 16.9955C10.4922 13.4043 13.4141 10.493 17 10.493C19.4172 10.493 21.5422 11.8318 22.6578 13.808L26.1109 11.8105C24.3047 8.6443 20.9047 6.49805 17 6.49805C11.2094 6.49805 6.50781 11.1943 6.50781 16.9955C6.50781 22.7968 11.2094 27.493 17 27.493C20.8781 27.493 24.2781 25.368 26.0844 22.2443L22.6578 20.2043Z" fill="white"/>
<path d="M6.10938 6.92311C6.54948 6.92311 6.90625 6.56158 6.90625 6.11561C6.90625 5.66964 6.54948 5.30811 6.10938 5.30811C5.66927 5.30811 5.3125 5.66964 5.3125 6.11561C5.3125 6.56158 5.66927 6.92311 6.10938 6.92311Z" fill="white"/>
</svg>
