<svg width="34" height="34" viewBox="0 0 34 34" fill="none" xmlns="http://www.w3.org/2000/svg">
<path d="M17 2.125C17 1.56141 17.2239 1.02091 17.6224 0.622398C18.0209 0.223883 18.5614 0 19.125 0L31.875 0C32.4386 0 32.9791 0.223883 33.3776 0.622398C33.7761 1.02091 34 1.56141 34 2.125V31.875C34 32.4386 33.7761 32.9791 33.3776 33.3776C32.9791 33.7761 32.4386 34 31.875 34H19.125C18.5614 34 18.0209 33.7761 17.6224 33.3776C17.2239 32.9791 17 32.4386 17 31.875V2.125ZM19.125 30.8125C19.125 31.0943 19.2369 31.3645 19.4362 31.5638C19.6355 31.7631 19.9057 31.875 20.1875 31.875C20.4693 31.875 20.7395 31.7631 20.9388 31.5638C21.1381 31.3645 21.25 31.0943 21.25 30.8125C21.25 30.5307 21.1381 30.2605 20.9388 30.0612C20.7395 29.8619 20.4693 29.75 20.1875 29.75C19.9057 29.75 19.6355 29.8619 19.4362 30.0612C19.2369 30.2605 19.125 30.5307 19.125 30.8125ZM23.375 30.8125C23.375 31.0943 23.4869 31.3645 23.6862 31.5638C23.8855 31.7631 24.1557 31.875 24.4375 31.875C24.7193 31.875 24.9895 31.7631 25.1888 31.5638C25.3881 31.3645 25.5 31.0943 25.5 30.8125C25.5 30.5307 25.3881 30.2605 25.1888 30.0612C24.9895 29.8619 24.7193 29.75 24.4375 29.75C24.1557 29.75 23.8855 29.8619 23.6862 30.0612C23.4869 30.2605 23.375 30.5307 23.375 30.8125ZM20.1875 2.125C19.9057 2.125 19.6355 2.23694 19.4362 2.4362C19.2369 2.63546 19.125 2.90571 19.125 3.1875C19.125 3.46929 19.2369 3.73954 19.4362 3.9388C19.6355 4.13806 19.9057 4.25 20.1875 4.25H30.8125C31.0943 4.25 31.3645 4.13806 31.5638 3.9388C31.7631 3.73954 31.875 3.46929 31.875 3.1875C31.875 2.90571 31.7631 2.63546 31.5638 2.4362C31.3645 2.23694 31.0943 2.125 30.8125 2.125H20.1875ZM19.125 7.4375C19.125 7.71929 19.2369 7.98954 19.4362 8.1888C19.6355 8.38806 19.9057 8.5 20.1875 8.5H30.8125C31.0943 8.5 31.3645 8.38806 31.5638 8.1888C31.7631 7.98954 31.875 7.71929 31.875 7.4375C31.875 7.15571 31.7631 6.88546 31.5638 6.6862C31.3645 6.48694 31.0943 6.375 30.8125 6.375H20.1875C19.9057 6.375 19.6355 6.48694 19.4362 6.6862C19.2369 6.88546 19.125 7.15571 19.125 7.4375ZM3.1875 4.25C2.34212 4.25 1.53137 4.58582 0.933597 5.1836C0.335825 5.78137 0 6.59212 0 7.4375L0 22.3125C0 23.1579 0.335825 23.9686 0.933597 24.5664C1.53137 25.1642 2.34212 25.5 3.1875 25.5H12.75V29.75H11.6875C11.4057 29.75 11.1355 29.8619 10.9362 30.0612C10.7369 30.2605 10.625 30.5307 10.625 30.8125C10.625 31.0943 10.7369 31.3645 10.9362 31.5638C11.1355 31.7631 11.4057 31.875 11.6875 31.875H14.875V23.375H3.1875C2.90571 23.375 2.63546 23.2631 2.4362 23.0638C2.23694 22.8645 2.125 22.5943 2.125 22.3125V7.4375C2.125 7.15571 2.23694 6.88546 2.4362 6.6862C2.63546 6.48694 2.90571 6.375 3.1875 6.375H14.875V4.25H3.1875Z" fill="white"/>
</svg>
