<svg width="34" height="34" viewBox="0 0 34 34" fill="none" xmlns="http://www.w3.org/2000/svg">
<path fill-rule="evenodd" clip-rule="evenodd" d="M12.2428 0.671489C8.94313 1.62739 6.00961 3.5522 3.82547 6.19447C1.64134 8.83675 0.308127 12.0737 0 15.4823H7.80264C8.25497 10.2954 9.76501 5.25487 12.2404 0.669061L12.2428 0.671489ZM7.80264 18.5179H0C0.307483 21.9267 1.64012 25.1639 3.82383 27.8066C6.00754 30.4493 8.94079 32.3747 12.2404 33.3311C9.76501 28.7453 8.25497 23.7048 7.80264 18.5179ZM16.1515 33.9795C13.1933 29.3109 11.3806 24.014 10.8603 18.5179H23.1373C22.6169 24.014 20.8043 29.3109 17.8461 33.9795C17.2816 34.0068 16.716 34.0068 16.1515 33.9795ZM21.7596 33.3287C25.0589 32.3724 27.9918 30.4474 30.1755 27.8052C32.3592 25.1629 33.692 21.9262 34 18.5179H26.1974C25.745 23.7048 24.235 28.7453 21.7596 33.3311V33.3287ZM26.1974 15.4823H34C33.6925 12.0735 32.3599 8.83631 30.1762 6.19359C27.9925 3.55088 25.0592 1.62553 21.7596 0.669061C24.2351 5.25484 25.7451 10.2954 26.1974 15.4823ZM16.1515 0.0206764C16.7168 -0.00689212 17.2832 -0.00689212 17.8485 0.0206764C20.8059 4.68955 22.6177 9.9864 23.1373 15.4823H10.8627C11.3919 9.95286 13.2084 4.65165 16.1515 0.0206764Z" fill="white"/>
</svg>
